<svg fill="none" height="104" viewBox="0 0 224 40" width="224" xmlns="http://www.w3.org/2000/svg"><path d="m167.44 31.0001 10.222-25.34605h-3.61l-8.55 21.88805-8.55-21.88805h-3.61l10.184 25.34605z" fill="#000"/><path d="m184.13 31.0001v-11.552h13.186v-2.812h-13.186v-8.17005h13.452v-2.812h-16.606v25.34605z" fill="#000"/><path d="m218.474 31.0001v-2.812h-13.452v-8.74h13.186v-2.812h-13.186v-8.17005h13.452v-2.812h-16.606v25.34605z" fill="#000"/><path d="m0 4c0-2.20914 1.79086-4 4-4h32c2.2091 0 4 1.79086 4 4v28.3431c0 1.0609-.4214 2.0771-1.2883 2.6885-2.4323 1.7155-8.4034 4.9684-18.7117 4.9684-10.30825 0-16.27936-3.2529-18.71168-4.9684-.866932-.6114-1.28832-1.6276-1.28832-2.6885z" fill="#007a98"/><path d="m40 4c0-2.20914-1.7909-4.00000392-4-4-10.6667.00001893-21.3333.00001893-31.99999 0-2.20914-.00000392-4.00001 1.79086-4.00001 4v24.8431c0 1.0609.421387 2.0771 1.28831 2.6885 2.43233 1.7155 8.40344 4.9684 18.71169 4.9684 10.3082 0 16.2794-3.2529 18.7117-4.9684.8669-.6114 1.2883-1.6276 1.2883-2.6885z" fill="#003d4c"/><g fill="#000"><path d="m85.4815 33v-28h-7.2371l-7.4275 21.1892h-.0762l-7.5036-21.1892h-7.2371v28h5.2183v-21h.0762l7.237 21h4.4184l7.199-21h.1143v21z"/><path d="m119.726 33v-11.9568c0-3.1405 1.561-4.7675 4.609-4.881v-4.8811h-.115c-2.399 0-3.504.6054-4.837 2.573h-.076v-1.8541h-4.647v21z"/><path d="m131.545 9.61622v-4.61622h-5.066v4.61622zm0 23.38378v-21h-5.066v21z"/><path d="m141.953 33v-16.5351h3.047v-4.4649h-3.047v-7h-5.066v7h-2.476v4.4649h2.476v16.5351z"/><path d="m110.806 24.5304c.189-.9122.303-1.7483.303-2.5464 0-6.1571-4.768-10.984-10.86-10.984-6.3949 0-11.049 5.0929-11.049 11.326s4.7677 11.174 11.087 11.174c4.465 0 8.778-3.0785 10.141-7.3353h-5.298c-1.021 1.8623-2.762 2.6985-4.843 2.6985-3.103 0-5.4112-2.4705-5.7896-4.3328zm-16.4599-4.0667c.7946-3.2306 3.1406-4.8269 5.9029-4.8269 3.141 0 5.222 1.7863 5.714 4.8269z"/><path d="m27.9167 9h-15.8334c-.5525 0-1.0824.21949-1.4731.61019-.3907.39071-.6102.92061-.6102 1.47311v15.8334c0 .2736.0539.5445.1586.7972.1047.2528.2581.4825.4516.6759.1934.1935.4231.3469.6759.4516.2527.1047.5236.1586.7972.1586h15.8334c.2736 0 .5445-.0539.7972-.1586.2528-.1047.4825-.2581.6759-.4516.1935-.1934.3469-.4231.4516-.6759.1047-.2527.1586-.5236.1586-.7972v-15.8334c0-.2736-.0539-.5445-.1586-.7972-.1047-.2528-.2581-.48245-.4516-.67591-.1934-.19345-.4231-.34691-.6759-.45161-.2527-.10469-.5236-.15858-.7972-.15858zm-2.5 7.9167h-3.75c-.221 0-.433-.0878-.5893-.2441s-.2441-.3683-.2441-.5893.0878-.4329.2441-.5892.3683-.2441.5893-.2441h3.75c.221 0 .4329.0878.5892.2441s.2441.3682.2441.5892-.0878.433-.2441.5893-.3682.2441-.5892.2441zm.8333 6.6666c0 .221-.0878.433-.2441.5893s-.3682.2441-.5892.2441h-3.75c-.221 0-.433-.0878-.5893-.2441s-.2441-.3683-.2441-.5893.0878-.4329.2441-.5892.3683-.2441.5893-.2441h3.75c.221 0 .4329.0878.5892.2441s.2441.3682.2441.5892zm-6.8333-9.9166-2.5 3.3333c-.0715.096-.1629.1755-.2679.233-.1049.0575-.2211.0917-.3405.1003-.1193.0088-.2391-.0083-.3513-.05s-.214-.107-.2987-.1916l-1.25-1.25c-.0777-.0777-.1393-.17-.1813-.2715-.0421-.1015-.0637-.2103-.0637-.3202s.0216-.2187.0637-.3202c.042-.1015.1036-.1938.1813-.2715s.17-.1393.2715-.1813c.1015-.0421.2103-.0637.3202-.0637s.2187.0216.3202.0637c.1015.042.1938.1036.2715.1813l.5666.575 1.925-2.5666c.1326-.1768.3301-.2937.5488-.325.2188-.0312.4411.0257.6179.1583s.2937.33.325.5488c.0312.2188-.0257.4411-.1583.6179zm0 8.3333-2.5 3.3333c-.0715.0961-.1628.1757-.2677.2333-.105.0576-.2211.0919-.3405.1006s-.2393-.0084-.3515-.0502-.2141-.1073-.2987-.192l-1.25-1.25c-.1569-.1569-.245-.3697-.245-.5917 0-.2219.0881-.4347.245-.5916.157-.157.3698-.2451.5917-.2451s.4347.0881.5917.2451l.5666.575 1.925-2.5667c.1326-.1768.3301-.2937.5488-.325.2188-.0312.4411.0257.6179.1583s.2937.3301.325.5488c.0312.2188-.0257.4411-.1583.6179z" opacity=".24"/></g><path d="m27.9167 8h-15.8334c-.5525 0-1.0824.21949-1.4731.61019-.3907.39071-.6102.92061-.6102 1.47311v15.8334c0 .2736.0539.5445.1586.7972.1047.2528.2581.4825.4516.6759.1934.1935.4231.3469.6759.4516.2527.1047.5236.1586.7972.1586h15.8334c.2736 0 .5445-.0539.7972-.1586.2528-.1047.4825-.2581.6759-.4516.1935-.1934.3469-.4231.4516-.6759.1047-.2527.1586-.5236.1586-.7972v-15.8334c0-.27355-.0539-.54446-.1586-.79722-.1047-.25277-.2581-.48243-.4516-.67589-.1934-.19345-.4231-.34691-.6759-.45161-.2527-.10469-.5236-.15858-.7972-.15858zm-2.5 7.9167h-3.75c-.221 0-.433-.0878-.5893-.2441s-.2441-.3683-.2441-.5893.0878-.4329.2441-.5892.3683-.2441.5893-.2441h3.75c.221 0 .4329.0878.5892.2441s.2441.3682.2441.5892-.0878.433-.2441.5893-.3682.2441-.5892.2441zm.8333 6.6666c0 .221-.0878.433-.2441.5893s-.3682.2441-.5892.2441h-3.75c-.221 0-.433-.0878-.5893-.2441s-.2441-.3683-.2441-.5893.0878-.4329.2441-.5892.3683-.2441.5893-.2441h3.75c.221 0 .4329.0878.5892.2441s.2441.3682.2441.5892zm-6.8333-9.9166-2.5 3.3333c-.0715.096-.1629.1755-.2679.233-.1049.0575-.2211.0917-.3405.1003-.1193.0088-.2391-.0083-.3513-.05s-.214-.107-.2987-.1916l-1.25-1.25c-.0777-.0777-.1393-.17-.1813-.2715-.0421-.1015-.0637-.2103-.0637-.3202s.0216-.2187.0637-.3202c.042-.1015.1036-.1938.1813-.2715s.17-.1393.2715-.1813c.1015-.0421.2103-.0637.3202-.0637s.2187.0216.3202.0637c.1015.042.1938.1036.2715.1813l.5666.575 1.925-2.5666c.1326-.1768.3301-.2937.5488-.325.2188-.0312.4411.0257.6179.1583s.2937.33.325.5488c.0312.2188-.0257.4411-.1583.6179zm0 8.3333-2.5 3.3333c-.0715.0961-.1628.1757-.2677.2333-.105.0576-.2211.0919-.3405.1006s-.2393-.0084-.3515-.0502-.2141-.1073-.2987-.192l-1.25-1.25c-.1569-.1569-.245-.3697-.245-.5917 0-.2219.0881-.4347.245-.5916.157-.157.3698-.2451.5917-.2451s.4347.0881.5917.2451l.5666.575 1.925-2.5667c.1326-.1768.3301-.2937.5488-.325.2188-.0312.4411.0257.6179.1583s.2937.3301.325.5488c.0312.2188-.0257.4411-.1583.6179z" fill="#fff"/></svg>
